<svg id="Слой_1" data-name="Слой 1" xmlns="http://www.w3.org/2000/svg" viewBox="0 0 1389.13 319"><defs><style>.cls-1,.cls-2,.cls-4{fill:none;}.cls-1,.cls-2,.cls-3{stroke:#f7931e;}.cls-1,.cls-2,.cls-3,.cls-4{stroke-miterlimit:10;}.cls-1{stroke-width:16px;}.cls-2{stroke-width:7px;}.cls-3{fill:#fff;stroke-width:10px;}.cls-4{stroke:#333;stroke-width:14px;}.cls-5{font-size:216px;font-family:CenturyGothic, Century Gothic;}</style></defs><title>Logo</title><g id="Icon"><rect class="cls-1" x="8" y="34" width="255.5" height="255.5" rx="74.41"/><line class="cls-2" x1="108.01" y1="127" x2="215.5" y2="128"/><line class="cls-2" x1="55.01" y1="158" x2="219.51" y2="159"/><line class="cls-2" x1="55.5" y1="96" x2="220" y2="97"/><path class="cls-3" d="M279.67,27.22c-13.38,12.71-21.78,20.78-21.85,21S300.39,90.56,301,90.75c.17.07,2-1.56,4.63-4,4.25-4,4.62-4.47,14.62-16.85l10.29-12.71L328.24,53l-2.34-4.17-6.46-6.31C310.79,34,295.69,19.64,294,18.27l-1.34-1.1-3,1.73-3.06,1.75Z"/><path class="cls-3" d="M253.46,52.13a4.7,4.7,0,0,0-.41.59c0,.1,18.74,19.43,32.73,33.68,4.5,4.57,8.51,8.68,8.88,9.1.56.6.82.73,1.14.55a8.09,8.09,0,0,0,1.94-1.94A33.63,33.63,0,0,0,293.82,90c-4.66-4.54-8.37-8.1-32-31.07-4.22-4.09-7.73-7.41-7.78-7.35A4.56,4.56,0,0,0,253.46,52.13Z"/><path class="cls-3" d="M248.19,57.15c-.83.77-15.37,14.74-24.69,23.73-.87.85-3.06,2.93-4.83,4.64-2.66,2.57-16.81,16.2-21.42,20.68-.68.66-5.42,5.25-10.53,10.18s-11.22,10.89-13.6,13.27L163.77,139c-16.15,16.14-20.33,20.32-38.86,38.89l-12.49,12.51c-1.33,1.36-2.46,2.54-2.51,2.65a8.79,8.79,0,0,0,2,1.57c2,1.36,2.09,1.41,4.34,4.58l2.23,3.21-.37,2.22c-.5,2.84-1.24,7.95-1.48,10.37a21,21,0,0,0,.53,5.9c.39,2.2.73,4.19.77,4.41.08.48,7.16,3,8.35,3,.41,0,3.71-.27,7.3-.58s6.67-.52,6.8-.48,4,5.26,6.44,8.88c.88,1.27,1.13,1.51,1.42,1.35s6.59-5.27,10.87-8.88c1.64-1.39,4.15-3.65,5.58-5s5.94-5.79,10.06-9.78,10.81-10.46,14.84-14.41L204.39,185l14.38-13.95c33.63-32.63,74.81-72.76,74.87-73s-5.38-5.46-21.29-20.39c-2-1.9-8-7.49-13.17-12.43s-9.61-9-9.71-9A4.12,4.12,0,0,0,248.19,57.15Z"/><path class="cls-3" d="M99.09,221.48l-5.92,21.13,1.21,1.27c.67.7,2.34,2.6,3.75,4.23s2.73,3.2,3,3.49l.5.55,11.69-3.2c18.43-5.06,30.63-8.49,30.66-8.62s-.91-1.88-2.1-4c-1.69-3.06-2.19-3.86-2.46-3.79-.66.15-6.37.66-8.36.75a9.56,9.56,0,0,1-2.7-.16,62.65,62.65,0,0,0-7.59-1.46c-.93-.09-1.46-.4-4.07-2.4l-3-2.32-1.22-2.48c-2.32-4.75-2.31-3.52-.11-12.05l2-7.53-1-1.8-1-1.76-2.57-.35-3.65-.48-1.07-.15Z"/><path class="cls-3" d="M90.65,251.45a17.64,17.64,0,0,0-.84,3.81,64,64,0,0,0,6.26-1.65l.85-.28-1.19-2.14c-1.12-2-1.28-2.17-2.47-2.88a5.8,5.8,0,0,0-1.41-.7A38.59,38.59,0,0,0,90.65,251.45Z"/><line class="cls-4" x1="390.5" x2="390.5" y2="319"/></g><text class="cls-5" transform="translate(458.58 226.65)">Thoughts</text></svg>