<?xml version="1.0" encoding="UTF-8"?>
<svg xmlns="http://www.w3.org/2000/svg" xmlns:xlink="http://www.w3.org/1999/xlink" viewBox="0 0 60 60" width="60px" height="60px">
<g id="surface30706006">
<path style=" stroke:none;fill-rule:nonzero;fill:rgb(100%,100%,100%);fill-opacity:1;" d="M 30 6 C 24.0625 6 18.605469 8.167969 14.414062 11.75 C 13.84375 12.207031 13.5625 12.9375 13.6875 13.65625 C 13.8125 14.378906 14.324219 14.972656 15.015625 15.207031 C 15.707031 15.445312 16.472656 15.285156 17.011719 14.789062 C 20.507812 11.800781 25.03125 10 30 10 C 40.394531 10 48.902344 17.875 49.902344 28 L 44 28 L 52 40 L 60 28 L 53.898438 28 C 52.875 15.703125 42.554688 6 30 6 Z M 8 20 L 0 32 L 6.101562 32 C 7.125 44.296875 17.445312 54 30 54 C 35.9375 54 41.394531 51.832031 45.585938 48.25 C 46.15625 47.792969 46.4375 47.0625 46.3125 46.34375 C 46.1875 45.621094 45.675781 45.027344 44.984375 44.792969 C 44.292969 44.554688 43.527344 44.714844 42.988281 45.210938 C 39.492188 48.199219 34.964844 50 30 50 C 19.605469 50 11.097656 42.125 10.097656 32 L 16 32 Z M 8 20 "/>
</g>
</svg>
